<?xml version="1.0" standalone="no"?>
<!DOCTYPE svg PUBLIC "-//W3C//DTD SVG 20010904//EN"
 "http://www.w3.org/TR/2001/REC-SVG-20010904/DTD/svg10.dtd">
<svg version="1.0" xmlns="http://www.w3.org/2000/svg"
 width="512.000000pt" height="512.000000pt" viewBox="0 0 512.000000 512.000000"
 preserveAspectRatio="xMidYMid meet">
<metadata>
Created by potrace 1.14, written by Peter Selinger 2001-2017
</metadata>
<g transform="translate(0.000000,512.000000) scale(0.100000,-0.100000)"
fill="#000000" stroke="none">
<path d="M2378 5115 c-1 -1 -39 -5 -82 -9 -44 -4 -82 -9 -85 -11 -4 -2 -34 -7
-66 -10 -117 -14 -472 -111 -499 -136 -6 -5 -16 -9 -23 -9 -14 0 -87 -32 -214
-95 -220 -107 -460 -280 -654 -472 -379 -374 -640 -882 -720 -1398 -2 -11 -6
-33 -9 -49 -20 -108 -28 -460 -14 -616 44 -470 243 -965 538 -1335 259 -325
596 -589 953 -746 50 -22 101 -44 112 -49 47 -21 236 -83 310 -101 101 -25
140 -33 220 -45 22 -3 51 -8 65 -10 94 -15 169 -19 350 -19 207 0 325 9 434
31 11 2 37 7 56 10 49 8 243 59 315 83 193 63 322 124 563 266 31 19 137 90
148 100 6 6 29 24 50 40 341 266 606 604 775 988 109 246 177 502 206 767 10
88 10 448 0 535 -14 124 -18 148 -38 249 -136 657 -528 1239 -1089 1616 -49
33 -92 60 -96 60 -4 0 -15 6 -23 14 -21 17 -164 92 -267 138 -151 69 -395 144
-554 172 -19 3 -46 8 -60 11 -14 3 -45 8 -70 11 -25 3 -56 8 -70 10 -27 6
-456 14 -462 9z"/>
</g>
</svg>
